<?xml version="1.0" encoding="utf-8"?>
<!-- Generator: Adobe Illustrator 23.1.0, SVG Export Plug-In . SVG Version: 6.00 Build 0)  -->
<svg version="1.1" id="Layer_1" xmlns="http://www.w3.org/2000/svg" xmlns:xlink="http://www.w3.org/1999/xlink" x="0px" y="0px"
	 viewBox="0 0 80 80" style="enable-background:new 0 0 80 80;" xml:space="preserve">
<style type="text/css">
	.st0{fill:#1F5FAD;}
</style>
<g>
	<path class="st0" d="M72.8,0H7.2C3.22,0,0,3.22,0,7.2v65.6C0,76.78,3.22,80,7.2,80h65.6c3.98,0,7.2-3.22,7.2-7.2V7.2
		C80,3.22,76.78,0,72.8,0z M57.02,55.69c-3.94,3.86-12.84,5.92-18.96,6.21c-0.61,0.03-1.13-0.45-1.13-1.07l0-10.83
		c0-0.62,0.44-1.15,1.05-1.24c5.54-0.82,12.14-3.89,12.14-9.24c0-5.94-3.72-8.91-11.15-8.91h-3.5c-0.48,0-0.87,0.39-0.87,0.87v29.34
		c0,0.48-0.39,0.87-0.87,0.87H22.49c-0.48,0-0.87-0.39-0.87-0.87V18.96c0-0.48,0.39-0.87,0.87-0.87h16.03
		c7.41,0,13.22,1.68,17.41,5.05c4.98,4.03,7.48,9.49,7.48,16.39C63.41,46.13,61.28,51.52,57.02,55.69z"/>
</g>
</svg>
